<svg xmlns="http://www.w3.org/2000/svg" width="44.939" height="44.939" viewBox="0 0 44.939 44.939"><defs><style>.a{fill:none;}.b{fill:#fff;}</style></defs><path class="a" d="M0,0H44.939V44.939H0Z"/><path class="b" d="M27.214,18.98a7.49,7.49,0,1,0-7.49-7.49A7.488,7.488,0,0,0,27.214,18.98ZM10.362,15.235V11.49a1.872,1.872,0,0,0-3.745,0v3.745H2.872a1.872,1.872,0,1,0,0,3.745H6.617v3.745a1.872,1.872,0,0,0,3.745,0V18.98h3.745a1.872,1.872,0,1,0,0-3.745Zm16.852,7.49c-5,0-14.98,2.509-14.98,7.49v1.872a1.878,1.878,0,0,0,1.872,1.872H40.322a1.878,1.878,0,0,0,1.872-1.872V30.214C42.194,25.234,32.214,22.725,27.214,22.725Z" transform="translate(0.872 3.49)"/></svg>